<svg width="270" height="72" viewBox="0 0 270 72" fill="none" xmlns="http://www.w3.org/2000/svg">
<path d="M32.68 35.67H37.12V44.19C35.98 45.05 34.66 45.71 33.16 46.17C31.66 46.63 30.15 46.86 28.63 46.86C26.45 46.86 24.49 46.4 22.75 45.48C21.01 44.54 19.64 43.25 18.64 41.61C17.66 39.95 17.17 38.08 17.17 36C17.17 33.92 17.66 32.06 18.64 30.42C19.64 28.76 21.02 27.47 22.78 26.55C24.54 25.61 26.52 25.14 28.72 25.14C30.56 25.14 32.23 25.45 33.73 26.07C35.23 26.69 36.49 27.59 37.51 28.77L34.39 31.65C32.89 30.07 31.08 29.28 28.96 29.28C27.62 29.28 26.43 29.56 25.39 30.12C24.35 30.68 23.54 31.47 22.96 32.49C22.38 33.51 22.09 34.68 22.09 36C22.09 37.3 22.38 38.46 22.96 39.48C23.54 40.5 24.34 41.3 25.36 41.88C26.4 42.44 27.58 42.72 28.9 42.72C30.3 42.72 31.56 42.42 32.68 41.82V35.67ZM48.9845 46.74C47.2845 46.74 45.7545 46.39 44.3945 45.69C43.0545 44.97 42.0045 43.98 41.2445 42.72C40.4845 41.46 40.1045 40.03 40.1045 38.43C40.1045 36.83 40.4845 35.4 41.2445 34.14C42.0045 32.88 43.0545 31.9 44.3945 31.2C45.7545 30.48 47.2845 30.12 48.9845 30.12C50.6845 30.12 52.2045 30.48 53.5445 31.2C54.8845 31.9 55.9345 32.88 56.6945 34.14C57.4545 35.4 57.8345 36.83 57.8345 38.43C57.8345 40.03 57.4545 41.46 56.6945 42.72C55.9345 43.98 54.8845 44.97 53.5445 45.69C52.2045 46.39 50.6845 46.74 48.9845 46.74ZM48.9845 42.9C50.1845 42.9 51.1645 42.5 51.9245 41.7C52.7045 40.88 53.0945 39.79 53.0945 38.43C53.0945 37.07 52.7045 35.99 51.9245 35.19C51.1645 34.37 50.1845 33.96 48.9845 33.96C47.7845 33.96 46.7945 34.37 46.0145 35.19C45.2345 35.99 44.8445 37.07 44.8445 38.43C44.8445 39.79 45.2345 40.88 46.0145 41.7C46.7945 42.5 47.7845 42.9 48.9845 42.9ZM68.6427 46.74C66.9427 46.74 65.4127 46.39 64.0527 45.69C62.7127 44.97 61.6627 43.98 60.9027 42.72C60.1427 41.46 59.7627 40.03 59.7627 38.43C59.7627 36.83 60.1427 35.4 60.9027 34.14C61.6627 32.88 62.7127 31.9 64.0527 31.2C65.4127 30.48 66.9427 30.12 68.6427 30.12C70.3427 30.12 71.8627 30.48 73.2027 31.2C74.5427 31.9 75.5927 32.88 76.3527 34.14C77.1127 35.4 77.4927 36.83 77.4927 38.43C77.4927 40.03 77.1127 41.46 76.3527 42.72C75.5927 43.98 74.5427 44.97 73.2027 45.69C71.8627 46.39 70.3427 46.74 68.6427 46.74ZM68.6427 42.9C69.8427 42.9 70.8227 42.5 71.5827 41.7C72.3627 40.88 72.7527 39.79 72.7527 38.43C72.7527 37.07 72.3627 35.99 71.5827 35.19C70.8227 34.37 69.8427 33.96 68.6427 33.96C67.4427 33.96 66.4527 34.37 65.6727 35.19C64.8927 35.99 64.5027 37.07 64.5027 38.43C64.5027 39.79 64.8927 40.88 65.6727 41.7C66.4527 42.5 67.4427 42.9 68.6427 42.9ZM97.0609 24.24V46.5H92.5909V44.64C91.4309 46.04 89.7509 46.74 87.5509 46.74C86.0309 46.74 84.6509 46.4 83.4109 45.72C82.1909 45.04 81.2309 44.07 80.5309 42.81C79.8309 41.55 79.4809 40.09 79.4809 38.43C79.4809 36.77 79.8309 35.31 80.5309 34.05C81.2309 32.79 82.1909 31.82 83.4109 31.14C84.6509 30.46 86.0309 30.12 87.5509 30.12C89.6109 30.12 91.2209 30.77 92.3809 32.07V24.24H97.0609ZM88.3609 42.9C89.5409 42.9 90.5209 42.5 91.3009 41.7C92.0809 40.88 92.4709 39.79 92.4709 38.43C92.4709 37.07 92.0809 35.99 91.3009 35.19C90.5209 34.37 89.5409 33.96 88.3609 33.96C87.1609 33.96 86.1709 34.37 85.3909 35.19C84.6109 35.99 84.2209 37.07 84.2209 38.43C84.2209 39.79 84.6109 40.88 85.3909 41.7C86.1709 42.5 87.1609 42.9 88.3609 42.9ZM106.072 29.46H99.3524V25.5H117.652V29.46H110.932V46.5H106.072V29.46ZM119.586 30.36H124.266V46.5H119.586V30.36ZM121.926 28.11C121.066 28.11 120.366 27.86 119.826 27.36C119.286 26.86 119.016 26.24 119.016 25.5C119.016 24.76 119.286 24.14 119.826 23.64C120.366 23.14 121.066 22.89 121.926 22.89C122.786 22.89 123.486 23.13 124.026 23.61C124.566 24.09 124.836 24.69 124.836 25.41C124.836 26.19 124.566 26.84 124.026 27.36C123.486 27.86 122.786 28.11 121.926 28.11ZM136.409 46.74C134.689 46.74 133.139 46.39 131.759 45.69C130.399 44.97 129.329 43.98 128.549 42.72C127.789 41.46 127.409 40.03 127.409 38.43C127.409 36.83 127.789 35.4 128.549 34.14C129.329 32.88 130.399 31.9 131.759 31.2C133.139 30.48 134.689 30.12 136.409 30.12C138.109 30.12 139.589 30.48 140.849 31.2C142.129 31.9 143.059 32.91 143.639 34.23L140.009 36.18C139.169 34.7 137.959 33.96 136.379 33.96C135.159 33.96 134.149 34.36 133.349 35.16C132.549 35.96 132.149 37.05 132.149 38.43C132.149 39.81 132.549 40.9 133.349 41.7C134.149 42.5 135.159 42.9 136.379 42.9C137.979 42.9 139.189 42.16 140.009 40.68L143.639 42.66C143.059 43.94 142.129 44.94 140.849 45.66C139.589 46.38 138.109 46.74 136.409 46.74ZM153.147 40.17L150.897 42.39V46.5H146.217V24.24H150.897V36.84L157.737 30.36H163.317L156.597 37.2L163.917 46.5H158.247L153.147 40.17ZM181.128 38.49C181.128 38.55 181.098 38.97 181.038 39.75H168.828C169.048 40.75 169.568 41.54 170.388 42.12C171.208 42.7 172.228 42.99 173.448 42.99C174.288 42.99 175.028 42.87 175.668 42.63C176.328 42.37 176.938 41.97 177.498 41.43L179.988 44.13C178.468 45.87 176.248 46.74 173.328 46.74C171.508 46.74 169.898 46.39 168.498 45.69C167.098 44.97 166.018 43.98 165.258 42.72C164.498 41.46 164.118 40.03 164.118 38.43C164.118 36.85 164.488 35.43 165.228 34.17C165.988 32.89 167.018 31.9 168.318 31.2C169.638 30.48 171.108 30.12 172.728 30.12C174.308 30.12 175.738 30.46 177.018 31.14C178.298 31.82 179.298 32.8 180.018 34.08C180.758 35.34 181.128 36.81 181.128 38.49ZM172.758 33.66C171.698 33.66 170.808 33.96 170.088 34.56C169.368 35.16 168.928 35.98 168.768 37.02H176.718C176.558 36 176.118 35.19 175.398 34.59C174.678 33.97 173.798 33.66 172.758 33.66ZM194.654 45.72C194.194 46.06 193.624 46.32 192.944 46.5C192.284 46.66 191.584 46.74 190.844 46.74C188.924 46.74 187.434 46.25 186.374 45.27C185.334 44.29 184.814 42.85 184.814 40.95V34.32H182.324V30.72H184.814V26.79H189.494V30.72H193.514V34.32H189.494V40.89C189.494 41.57 189.664 42.1 190.004 42.48C190.364 42.84 190.864 43.02 191.504 43.02C192.244 43.02 192.874 42.82 193.394 42.42L194.654 45.72Z" fill="#256BA8"/>
<path d="M222.889 43.5H245.111V28.5H222.889V43.5ZM249.556 51C252.007 51 254 48.7617 254 46V39.75C252.16 39.75 250.667 38.0703 250.667 36C250.667 33.9297 252.16 32.25 254 32.25V26C254 23.2422 252.007 21 249.556 21H218.444C215.99 21 214 23.2422 214 26V32.25C215.841 32.25 217.333 33.9297 217.333 36C217.333 38.0703 215.841 39.75 214 39.75V46C214 48.7617 215.99 51 218.444 51H249.556ZM220.667 28.5C220.667 27.1172 221.66 26 222.889 26H245.111C246.34 26 247.333 27.1172 247.333 28.5V43.5C247.333 44.8828 246.34 46 245.111 46H222.889C221.66 46 220.667 44.8828 220.667 43.5V28.5Z" fill="#256BA8"/>
</svg>
