<svg width="201" height="73" viewBox="0 0 201 73" fill="none" xmlns="http://www.w3.org/2000/svg">
<path d="M126.11 14.9024V7.73438C126.11 4.56737 128.677 2 131.844 2H193.489C196.656 2 199.223 4.56737 199.223 7.73438V47.8751C199.223 51.0421 196.656 53.6094 193.489 53.6094H183.454L186.807 69.2603C187.101 70.6282 185.461 71.563 184.433 70.6141L169.118 56.4766H131.844C128.677 56.4766 126.11 53.9093 126.11 50.7422V47.8751" stroke="#256BA8" stroke-width="2.79648"/>
<path d="M12.63 40.5875C10.97 40.5875 9.44 40.3275 8.04 39.8075C6.66 39.2675 5.45 38.5075 4.41 37.5275C3.39 36.5475 2.59 35.3975 2.01 34.0775C1.45 32.7575 1.17 31.3075 1.17 29.7275C1.17 28.1475 1.45 26.6975 2.01 25.3775C2.59 24.0575 3.4 22.9075 4.44 21.9275C5.48 20.9475 6.7 20.1975 8.1 19.6775C9.5 19.1375 11.04 18.8675 12.72 18.8675C14.58 18.8675 16.25 19.1775 17.73 19.7975C19.23 20.4175 20.49 21.3175 21.51 22.4975L18.39 25.3775C17.63 24.5775 16.8 23.9875 15.9 23.6075C15 23.2075 14.02 23.0075 12.96 23.0075C11.94 23.0075 11.01 23.1675 10.17 23.4875C9.33 23.8075 8.6 24.2675 7.98 24.8675C7.38 25.4675 6.91 26.1775 6.57 26.9975C6.25 27.8175 6.09 28.7275 6.09 29.7275C6.09 30.7075 6.25 31.6075 6.57 32.4275C6.91 33.2475 7.38 33.9675 7.98 34.5875C8.6 35.1875 9.32 35.6475 10.14 35.9675C10.98 36.2875 11.9 36.4475 12.9 36.4475C13.86 36.4475 14.79 36.2975 15.69 35.9975C16.61 35.6775 17.5 35.1475 18.36 34.4075L21.12 37.9175C19.98 38.7775 18.65 39.4375 17.13 39.8975C15.63 40.3575 14.13 40.5875 12.63 40.5875ZM16.68 37.2875V29.3975H21.12V37.9175L16.68 37.2875ZM32.9845 40.4675C31.2645 40.4675 29.7345 40.1075 28.3945 39.3875C27.0745 38.6675 26.0245 37.6875 25.2445 36.4475C24.4845 35.1875 24.1045 33.7575 24.1045 32.1575C24.1045 30.5375 24.4845 29.1075 25.2445 27.8675C26.0245 26.6075 27.0745 25.6275 28.3945 24.9275C29.7345 24.2075 31.2645 23.8475 32.9845 23.8475C34.6845 23.8475 36.2045 24.2075 37.5445 24.9275C38.8845 25.6275 39.9345 26.5975 40.6945 27.8375C41.4545 29.0775 41.8345 30.5175 41.8345 32.1575C41.8345 33.7575 41.4545 35.1875 40.6945 36.4475C39.9345 37.6875 38.8845 38.6675 37.5445 39.3875C36.2045 40.1075 34.6845 40.4675 32.9845 40.4675ZM32.9845 36.6275C33.7645 36.6275 34.4645 36.4475 35.0845 36.0875C35.7045 35.7275 36.1945 35.2175 36.5545 34.5575C36.9145 33.8775 37.0945 33.0775 37.0945 32.1575C37.0945 31.2175 36.9145 30.4175 36.5545 29.7575C36.1945 29.0975 35.7045 28.5875 35.0845 28.2275C34.4645 27.8675 33.7645 27.6875 32.9845 27.6875C32.2045 27.6875 31.5045 27.8675 30.8845 28.2275C30.2645 28.5875 29.7645 29.0975 29.3845 29.7575C29.0245 30.4175 28.8445 31.2175 28.8445 32.1575C28.8445 33.0775 29.0245 33.8775 29.3845 34.5575C29.7645 35.2175 30.2645 35.7275 30.8845 36.0875C31.5045 36.4475 32.2045 36.6275 32.9845 36.6275ZM52.6427 40.4675C50.9227 40.4675 49.3927 40.1075 48.0527 39.3875C46.7327 38.6675 45.6827 37.6875 44.9027 36.4475C44.1427 35.1875 43.7627 33.7575 43.7627 32.1575C43.7627 30.5375 44.1427 29.1075 44.9027 27.8675C45.6827 26.6075 46.7327 25.6275 48.0527 24.9275C49.3927 24.2075 50.9227 23.8475 52.6427 23.8475C54.3427 23.8475 55.8627 24.2075 57.2027 24.9275C58.5427 25.6275 59.5927 26.5975 60.3527 27.8375C61.1127 29.0775 61.4927 30.5175 61.4927 32.1575C61.4927 33.7575 61.1127 35.1875 60.3527 36.4475C59.5927 37.6875 58.5427 38.6675 57.2027 39.3875C55.8627 40.1075 54.3427 40.4675 52.6427 40.4675ZM52.6427 36.6275C53.4227 36.6275 54.1227 36.4475 54.7427 36.0875C55.3627 35.7275 55.8527 35.2175 56.2127 34.5575C56.5727 33.8775 56.7527 33.0775 56.7527 32.1575C56.7527 31.2175 56.5727 30.4175 56.2127 29.7575C55.8527 29.0975 55.3627 28.5875 54.7427 28.2275C54.1227 27.8675 53.4227 27.6875 52.6427 27.6875C51.8627 27.6875 51.1627 27.8675 50.5427 28.2275C49.9227 28.5875 49.4227 29.0975 49.0427 29.7575C48.6827 30.4175 48.5027 31.2175 48.5027 32.1575C48.5027 33.0775 48.6827 33.8775 49.0427 34.5575C49.4227 35.2175 49.9227 35.7275 50.5427 36.0875C51.1627 36.4475 51.8627 36.6275 52.6427 36.6275ZM71.5509 40.4675C70.0309 40.4675 68.6609 40.1275 67.4409 39.4475C66.2209 38.7475 65.2509 37.7775 64.5309 36.5375C63.8309 35.2975 63.4809 33.8375 63.4809 32.1575C63.4809 30.4575 63.8309 28.9875 64.5309 27.7475C65.2509 26.5075 66.2209 25.5475 67.4409 24.8675C68.6609 24.1875 70.0309 23.8475 71.5509 23.8475C72.9109 23.8475 74.1009 24.1475 75.1209 24.7475C76.1409 25.3475 76.9309 26.2575 77.4909 27.4775C78.0509 28.6975 78.3309 30.2575 78.3309 32.1575C78.3309 34.0375 78.0609 35.5975 77.5209 36.8375C76.9809 38.0575 76.2009 38.9675 75.1809 39.5675C74.1809 40.1675 72.9709 40.4675 71.5509 40.4675ZM72.3609 36.6275C73.1209 36.6275 73.8109 36.4475 74.4309 36.0875C75.0509 35.7275 75.5409 35.2175 75.9009 34.5575C76.2809 33.8775 76.4709 33.0775 76.4709 32.1575C76.4709 31.2175 76.2809 30.4175 75.9009 29.7575C75.5409 29.0975 75.0509 28.5875 74.4309 28.2275C73.8109 27.8675 73.1209 27.6875 72.3609 27.6875C71.5809 27.6875 70.8809 27.8675 70.2609 28.2275C69.6409 28.5875 69.1409 29.0975 68.7609 29.7575C68.4009 30.4175 68.2209 31.2175 68.2209 32.1575C68.2209 33.0775 68.4009 33.8775 68.7609 34.5575C69.1409 35.2175 69.6409 35.7275 70.2609 36.0875C70.8809 36.4475 71.5809 36.6275 72.3609 36.6275ZM76.5909 40.2275V36.9275L76.6809 32.1275L76.3809 27.3575V17.9675H81.0609V40.2275H76.5909ZM90.0724 40.2275V23.1875H83.3524V19.2275H101.652V23.1875H94.9324V40.2275H90.0724ZM103.937 40.2275V24.0875H108.617V40.2275H103.937ZM106.277 21.8375C105.417 21.8375 104.717 21.5875 104.177 21.0875C103.637 20.5875 103.367 19.9675 103.367 19.2275C103.367 18.4875 103.637 17.8675 104.177 17.3675C104.717 16.8675 105.417 16.6175 106.277 16.6175C107.137 16.6175 107.837 16.8575 108.377 17.3375C108.917 17.7975 109.187 18.3975 109.187 19.1375C109.187 19.9175 108.917 20.5675 108.377 21.0875C107.857 21.5875 107.157 21.8375 106.277 21.8375ZM120.761 40.4675C119.021 40.4675 117.471 40.1175 116.111 39.4175C114.751 38.6975 113.681 37.7075 112.901 36.4475C112.141 35.1875 111.761 33.7575 111.761 32.1575C111.761 30.5375 112.141 29.1075 112.901 27.8675C113.681 26.6075 114.751 25.6275 116.111 24.9275C117.471 24.2075 119.021 23.8475 120.761 23.8475C122.461 23.8475 123.941 24.2075 125.201 24.9275C126.461 25.6275 127.391 26.6375 127.991 27.9575L124.361 29.9075C123.941 29.1475 123.411 28.5875 122.771 28.2275C122.151 27.8675 121.471 27.6875 120.731 27.6875C119.931 27.6875 119.211 27.8675 118.571 28.2275C117.931 28.5875 117.421 29.0975 117.041 29.7575C116.681 30.4175 116.501 31.2175 116.501 32.1575C116.501 33.0975 116.681 33.8975 117.041 34.5575C117.421 35.2175 117.931 35.7275 118.571 36.0875C119.211 36.4475 119.931 36.6275 120.731 36.6275C121.471 36.6275 122.151 36.4575 122.771 36.1175C123.411 35.7575 123.941 35.1875 124.361 34.4075L127.991 36.3875C127.391 37.6875 126.461 38.6975 125.201 39.4175C123.941 40.1175 122.461 40.4675 120.761 40.4675ZM134.468 36.9275L134.588 31.2275L142.118 24.0875H147.698L140.468 31.4375L138.038 33.4175L134.468 36.9275ZM130.598 40.2275V17.9675H135.278V40.2275H130.598ZM142.628 40.2275L137.168 33.4475L140.108 29.8175L148.298 40.2275H142.628ZM157.738 40.4675C155.898 40.4675 154.278 40.1075 152.878 39.3875C151.498 38.6675 150.428 37.6875 149.668 36.4475C148.908 35.1875 148.528 33.7575 148.528 32.1575C148.528 30.5375 148.898 29.1075 149.638 27.8675C150.398 26.6075 151.428 25.6275 152.728 24.9275C154.028 24.2075 155.498 23.8475 157.138 23.8475C158.718 23.8475 160.138 24.1875 161.398 24.8675C162.678 25.5275 163.688 26.4875 164.428 27.7475C165.168 28.9875 165.538 30.4775 165.538 32.2175C165.538 32.3975 165.528 32.6075 165.508 32.8475C165.488 33.0675 165.468 33.2775 165.448 33.4775H152.338V30.7475H162.988L161.188 31.5575C161.188 30.7175 161.018 29.9875 160.678 29.3675C160.338 28.7475 159.868 28.2675 159.268 27.9275C158.668 27.5675 157.968 27.3875 157.168 27.3875C156.368 27.3875 155.658 27.5675 155.038 27.9275C154.438 28.2675 153.968 28.7575 153.628 29.3975C153.288 30.0175 153.118 30.7575 153.118 31.6175V32.3375C153.118 33.2175 153.308 33.9975 153.688 34.6775C154.088 35.3375 154.638 35.8475 155.338 36.2075C156.058 36.5475 156.898 36.7175 157.858 36.7175C158.718 36.7175 159.468 36.5875 160.108 36.3275C160.768 36.0675 161.368 35.6775 161.908 35.1575L164.398 37.8575C163.658 38.6975 162.728 39.3475 161.608 39.8075C160.488 40.2475 159.198 40.4675 157.738 40.4675ZM175.254 40.4675C173.354 40.4675 171.874 39.9875 170.814 39.0275C169.754 38.0475 169.224 36.5975 169.224 34.6775V20.5175H173.904V34.6175C173.904 35.2975 174.084 35.8275 174.444 36.2075C174.804 36.5675 175.294 36.7475 175.914 36.7475C176.654 36.7475 177.284 36.5475 177.804 36.1475L179.064 39.4475C178.584 39.7875 178.004 40.0475 177.324 40.2275C176.664 40.3875 175.974 40.4675 175.254 40.4675ZM166.734 28.0475V24.4475H177.924V28.0475H166.734Z" fill="#256BA8"/>
</svg>
