<svg width="132" height="49" viewBox="0 0 132 49" fill="none" xmlns="http://www.w3.org/2000/svg">
<path d="M82.4404 10.4146V5.73981C82.4404 3.67437 84.1098 2 86.1691 2H126.252C128.311 2 129.981 3.67437 129.981 5.73981V31.9185C129.981 33.984 128.311 35.6583 126.252 35.6583H119.727L121.908 45.8654C122.098 46.7576 121.032 47.3672 120.364 46.7483L110.405 37.5282H86.1691C84.1098 37.5282 82.4404 35.8539 82.4404 33.7884V31.9185" stroke="#FEFEFE" stroke-width="2.79648"/>
<path d="M8.86043 27.258C7.75376 27.258 6.73376 27.0847 5.80043 26.738C4.88043 26.378 4.07376 25.8713 3.38043 25.218C2.70043 24.5647 2.1671 23.798 1.78043 22.918C1.4071 22.038 1.22043 21.0713 1.22043 20.018C1.22043 18.9647 1.4071 17.998 1.78043 17.118C2.1671 16.238 2.7071 15.4713 3.40043 14.818C4.09376 14.1647 4.9071 13.6647 5.84043 13.318C6.77376 12.958 7.80043 12.778 8.92043 12.778C10.1604 12.778 11.2738 12.9847 12.2604 13.398C13.2604 13.8113 14.1004 14.4113 14.7804 15.198L12.7004 17.118C12.1938 16.5847 11.6404 16.1913 11.0404 15.938C10.4404 15.6713 9.7871 15.538 9.08043 15.538C8.40043 15.538 7.78043 15.6447 7.22043 15.858C6.66043 16.0713 6.17376 16.378 5.76043 16.778C5.36043 17.178 5.0471 17.6513 4.82043 18.198C4.6071 18.7447 4.50043 19.3513 4.50043 20.018C4.50043 20.6713 4.6071 21.2713 4.82043 21.818C5.0471 22.3647 5.36043 22.8447 5.76043 23.258C6.17376 23.658 6.65376 23.9647 7.20043 24.178C7.76043 24.3913 8.37376 24.498 9.04043 24.498C9.68043 24.498 10.3004 24.398 10.9004 24.198C11.5138 23.9847 12.1071 23.6313 12.6804 23.138L14.5204 25.478C13.7604 26.0513 12.8738 26.4913 11.8604 26.798C10.8604 27.1047 9.86043 27.258 8.86043 27.258ZM11.5604 25.058V19.798H14.5204V25.478L11.5604 25.058ZM22.4301 27.178C21.2835 27.178 20.2635 26.938 19.3701 26.458C18.4901 25.978 17.7901 25.3247 17.2701 24.498C16.7635 23.658 16.5101 22.7047 16.5101 21.638C16.5101 20.558 16.7635 19.6047 17.2701 18.778C17.7901 17.938 18.4901 17.2847 19.3701 16.818C20.2635 16.338 21.2835 16.098 22.4301 16.098C23.5635 16.098 24.5768 16.338 25.4701 16.818C26.3635 17.2847 27.0635 17.9313 27.5701 18.758C28.0768 19.5847 28.3301 20.5447 28.3301 21.638C28.3301 22.7047 28.0768 23.658 27.5701 24.498C27.0635 25.3247 26.3635 25.978 25.4701 26.458C24.5768 26.938 23.5635 27.178 22.4301 27.178ZM22.4301 24.618C22.9501 24.618 23.4168 24.498 23.8301 24.258C24.2435 24.018 24.5701 23.678 24.8101 23.238C25.0501 22.7847 25.1701 22.2513 25.1701 21.638C25.1701 21.0113 25.0501 20.478 24.8101 20.038C24.5701 19.598 24.2435 19.258 23.8301 19.018C23.4168 18.778 22.9501 18.658 22.4301 18.658C21.9101 18.658 21.4435 18.778 21.0301 19.018C20.6168 19.258 20.2835 19.598 20.0301 20.038C19.7901 20.478 19.6701 21.0113 19.6701 21.638C19.6701 22.2513 19.7901 22.7847 20.0301 23.238C20.2835 23.678 20.6168 24.018 21.0301 24.258C21.4435 24.498 21.9101 24.618 22.4301 24.618ZM35.5356 27.178C34.3889 27.178 33.3689 26.938 32.4756 26.458C31.5956 25.978 30.8956 25.3247 30.3756 24.498C29.8689 23.658 29.6156 22.7047 29.6156 21.638C29.6156 20.558 29.8689 19.6047 30.3756 18.778C30.8956 17.938 31.5956 17.2847 32.4756 16.818C33.3689 16.338 34.3889 16.098 35.5356 16.098C36.6689 16.098 37.6823 16.338 38.5756 16.818C39.4689 17.2847 40.1689 17.9313 40.6756 18.758C41.1823 19.5847 41.4356 20.5447 41.4356 21.638C41.4356 22.7047 41.1823 23.658 40.6756 24.498C40.1689 25.3247 39.4689 25.978 38.5756 26.458C37.6823 26.938 36.6689 27.178 35.5356 27.178ZM35.5356 24.618C36.0556 24.618 36.5223 24.498 36.9356 24.258C37.3489 24.018 37.6756 23.678 37.9156 23.238C38.1556 22.7847 38.2756 22.2513 38.2756 21.638C38.2756 21.0113 38.1556 20.478 37.9156 20.038C37.6756 19.598 37.3489 19.258 36.9356 19.018C36.5223 18.778 36.0556 18.658 35.5356 18.658C35.0156 18.658 34.5489 18.778 34.1356 19.018C33.7223 19.258 33.3889 19.598 33.1356 20.038C32.8956 20.478 32.7756 21.0113 32.7756 21.638C32.7756 22.2513 32.8956 22.7847 33.1356 23.238C33.3889 23.678 33.7223 24.018 34.1356 24.258C34.5489 24.498 35.0156 24.618 35.5356 24.618ZM48.1411 27.178C47.1277 27.178 46.2144 26.9513 45.4011 26.498C44.5877 26.0313 43.9411 25.3847 43.4611 24.558C42.9944 23.7313 42.7611 22.758 42.7611 21.638C42.7611 20.5047 42.9944 19.5247 43.4611 18.698C43.9411 17.8713 44.5877 17.2313 45.4011 16.778C46.2144 16.3247 47.1277 16.098 48.1411 16.098C49.0477 16.098 49.8411 16.298 50.5211 16.698C51.2011 17.098 51.7277 17.7047 52.1011 18.518C52.4744 19.3313 52.6611 20.3713 52.6611 21.638C52.6611 22.8913 52.4811 23.9313 52.1211 24.758C51.7611 25.5713 51.2411 26.178 50.5611 26.578C49.8944 26.978 49.0877 27.178 48.1411 27.178ZM48.6811 24.618C49.1877 24.618 49.6477 24.498 50.0611 24.258C50.4744 24.018 50.8011 23.678 51.0411 23.238C51.2944 22.7847 51.4211 22.2513 51.4211 21.638C51.4211 21.0113 51.2944 20.478 51.0411 20.038C50.8011 19.598 50.4744 19.258 50.0611 19.018C49.6477 18.778 49.1877 18.658 48.6811 18.658C48.1611 18.658 47.6944 18.778 47.2811 19.018C46.8677 19.258 46.5344 19.598 46.2811 20.038C46.0411 20.478 45.9211 21.0113 45.9211 21.638C45.9211 22.2513 46.0411 22.7847 46.2811 23.238C46.5344 23.678 46.8677 24.018 47.2811 24.258C47.6944 24.498 48.1611 24.618 48.6811 24.618ZM51.5011 27.018V24.818L51.5611 21.618L51.3611 18.438V12.178H54.4811V27.018H51.5011ZM60.4887 27.018V15.658H56.0087V13.018H68.2087V15.658H63.7287V27.018H60.4887ZM69.732 27.018V16.258H72.852V27.018H69.732ZM71.292 14.758C70.7187 14.758 70.252 14.5913 69.892 14.258C69.532 13.9247 69.352 13.5113 69.352 13.018C69.352 12.5247 69.532 12.1113 69.892 11.778C70.252 11.4447 70.7187 11.278 71.292 11.278C71.8653 11.278 72.332 11.438 72.692 11.758C73.052 12.0647 73.232 12.4647 73.232 12.958C73.232 13.478 73.052 13.9113 72.692 14.258C72.3453 14.5913 71.8787 14.758 71.292 14.758ZM80.9476 27.178C79.7876 27.178 78.7543 26.9447 77.8476 26.478C76.941 25.998 76.2276 25.338 75.7076 24.498C75.201 23.658 74.9476 22.7047 74.9476 21.638C74.9476 20.558 75.201 19.6047 75.7076 18.778C76.2276 17.938 76.941 17.2847 77.8476 16.818C78.7543 16.338 79.7876 16.098 80.9476 16.098C82.081 16.098 83.0676 16.338 83.9076 16.818C84.7476 17.2847 85.3676 17.958 85.7676 18.838L83.3476 20.138C83.0676 19.6313 82.7143 19.258 82.2876 19.018C81.8743 18.778 81.421 18.658 80.9276 18.658C80.3943 18.658 79.9143 18.778 79.4876 19.018C79.061 19.258 78.721 19.598 78.4676 20.038C78.2276 20.478 78.1076 21.0113 78.1076 21.638C78.1076 22.2647 78.2276 22.798 78.4676 23.238C78.721 23.678 79.061 24.018 79.4876 24.258C79.9143 24.498 80.3943 24.618 80.9276 24.618C81.421 24.618 81.8743 24.5047 82.2876 24.278C82.7143 24.038 83.0676 23.658 83.3476 23.138L85.7676 24.458C85.3676 25.3247 84.7476 25.998 83.9076 26.478C83.0676 26.9447 82.081 27.178 80.9476 27.178ZM90.0854 24.818L90.1654 21.018L95.1854 16.258H98.9054L94.0854 21.158L92.4654 22.478L90.0854 24.818ZM87.5054 27.018V12.178H90.6254V27.018H87.5054ZM95.5254 27.018L91.8854 22.498L93.8454 20.078L99.3054 27.018H95.5254ZM105.599 27.178C104.373 27.178 103.293 26.938 102.359 26.458C101.439 25.978 100.726 25.3247 100.219 24.498C99.7127 23.658 99.4593 22.7047 99.4593 21.638C99.4593 20.558 99.706 19.6047 100.199 18.778C100.706 17.938 101.393 17.2847 102.259 16.818C103.126 16.338 104.106 16.098 105.199 16.098C106.253 16.098 107.199 16.3247 108.039 16.778C108.893 17.218 109.566 17.858 110.059 18.698C110.553 19.5247 110.799 20.518 110.799 21.678C110.799 21.798 110.793 21.938 110.779 22.098C110.766 22.2447 110.753 22.3847 110.739 22.518H101.999V20.698H109.099L107.899 21.238C107.899 20.678 107.786 20.1913 107.559 19.778C107.333 19.3647 107.019 19.0447 106.619 18.818C106.219 18.578 105.753 18.458 105.219 18.458C104.686 18.458 104.213 18.578 103.799 18.818C103.399 19.0447 103.086 19.3713 102.859 19.798C102.633 20.2113 102.519 20.7047 102.519 21.278V21.758C102.519 22.3447 102.646 22.8647 102.899 23.318C103.166 23.758 103.533 24.098 103.999 24.338C104.479 24.5647 105.039 24.678 105.679 24.678C106.253 24.678 106.753 24.5913 107.179 24.418C107.619 24.2447 108.019 23.9847 108.379 23.638L110.039 25.438C109.546 25.998 108.926 26.4313 108.179 26.738C107.433 27.0313 106.573 27.178 105.599 27.178ZM117.277 27.178C116.01 27.178 115.023 26.858 114.317 26.218C113.61 25.5647 113.257 24.598 113.257 23.318V13.878H116.377V23.278C116.377 23.7313 116.497 24.0847 116.737 24.338C116.977 24.578 117.303 24.698 117.717 24.698C118.21 24.698 118.63 24.5647 118.977 24.298L119.817 26.498C119.497 26.7247 119.11 26.898 118.657 27.018C118.217 27.1247 117.757 27.178 117.277 27.178ZM111.597 18.898V16.498H119.057V18.898H111.597Z" fill="#FEFEFE"/>
</svg>
